<mxfile host="app.diagrams.net" modified="2024-01-08T13:03:28.992Z" agent="Mozilla/5.0 (Macintosh; Intel Mac OS X 10_15_7) AppleWebKit/605.1.15 (KHTML, like Gecko) Version/17.2.1 Safari/605.1.15" version="22.1.17" etag="ldn9xwsIrSwUaH0ybsiu" type="github">
  <diagram name="Page-1" id="YqGeIa8l8iIMZzvlRRrx">
    <mxGraphModel>
      <root>
        <mxCell id="0" />
        <mxCell id="1" parent="0" />
      </root>
    </mxGraphModel>
  </diagram>
</mxfile>
